solid OpenSCAD_Model
  facet normal 0.998369 0.0570895 0
    outer loop
      vertex 6.375 0 18
      vertex 6.33345 0.726695 0
      vertex 6.33345 0.726695 18
    endloop
  endfacet
  facet normal 0.998369 0.0570895 0
    outer loop
      vertex 6.33345 0.726695 0
      vertex 6.375 0 18
      vertex 6.375 0 0
    endloop
  endfacet
  facet normal -1 0 0
    outer loop
      vertex -6.3646 -0.36394 0
      vertex -6.3646 0.36394 18
      vertex -6.3646 0.36394 0
    endloop
  endfacet
  facet normal -1 -0 0
    outer loop
      vertex -6.3646 0.36394 18
      vertex -6.3646 -0.36394 0
      vertex -6.3646 -0.36394 18
    endloop
  endfacet
  facet normal -0.0855746 0.996332 0
    outer loop
      vertex -0.182044 6.3724 0
      vertex -0.907257 6.31011 18
      vertex -0.182044 6.3724 18
    endloop
  endfacet
  facet normal -0.0855746 0.996332 0
    outer loop
      vertex -0.907257 6.31011 18
      vertex -0.182044 6.3724 0
      vertex -0.907257 6.31011 0
    endloop
  endfacet
  facet normal 0.028556 -0.999592 0
    outer loop
      vertex -0.182044 -6.3724 0
      vertex 0.54554 -6.35161 18
      vertex -0.182044 -6.3724 18
    endloop
  endfacet
  facet normal 0.028556 -0.999592 0
    outer loop
      vertex 0.54554 -6.35161 18
      vertex -0.182044 -6.3724 0
      vertex 0.54554 -6.35161 0
    endloop
  endfacet
  facet normal 0.65486 0.75575 -0
    outer loop
      vertex 4.44298 4.57171 0
      vertex 3.89288 5.04838 18
      vertex 4.44298 4.57171 18
    endloop
  endfacet
  facet normal 0.65486 0.75575 0
    outer loop
      vertex 3.89288 5.04838 18
      vertex 4.44298 4.57171 0
      vertex 3.89288 5.04838 0
    endloop
  endfacet
  facet normal -0.774141 0.633013 0
    outer loop
      vertex -5.15748 3.74713 0
      vertex -4.69672 4.31061 18
      vertex -4.69672 4.31061 0
    endloop
  endfacet
  facet normal -0.774141 0.633013 0
    outer loop
      vertex -4.69672 4.31061 18
      vertex -5.15748 3.74713 0
      vertex -5.15748 3.74713 18
    endloop
  endfacet
  facet normal -0.415415 0.909632 0
    outer loop
      vertex -2.3129 5.94063 0
      vertex -2.975 5.63826 18
      vertex -2.3129 5.94063 18
    endloop
  endfacet
  facet normal -0.415415 0.909632 0
    outer loop
      vertex -2.975 5.63826 18
      vertex -2.3129 5.94063 0
      vertex -2.975 5.63826 0
    endloop
  endfacet
  facet normal -0.974012 -0.226497 0
    outer loop
      vertex -6.11677 -1.79604 0
      vertex -6.28163 -1.08708 18
      vertex -6.28163 -1.08708 0
    endloop
  endfacet
  facet normal -0.974012 -0.226497 0
    outer loop
      vertex -6.28163 -1.08708 18
      vertex -6.11677 -1.79604 0
      vertex -6.11677 -1.79604 18
    endloop
  endfacet
  facet normal 0 0 -1
    outer loop
      vertex 3.375 0 0
      vertex 6.375 0 0
      vertex 6.33345 -0.726695 0
    endloop
  endfacet
  facet normal 0 0 -1
    outer loop
      vertex 3.353 -0.384721 0
      vertex 6.33345 -0.726695 0
      vertex 6.20933 -1.44392 0
    endloop
  endfacet
  facet normal 0 0 -1
    outer loop
      vertex 6.375 0 0
      vertex 3.375 0 0
      vertex 6.33345 0.726695 0
    endloop
  endfacet
  facet normal 0 0 -1
    outer loop
      vertex 3.28729 -0.764426 0
      vertex 6.20933 -1.44392 0
      vertex 6.00426 -2.14231 0
    endloop
  endfacet
  facet normal 0 0 -1
    outer loop
      vertex 3.353 0.384721 0
      vertex 6.33345 0.726695 0
      vertex 3.375 0 0
    endloop
  endfacet
  facet normal 0 0 -1
    outer loop
      vertex 3.17872 -1.13417 0
      vertex 6.00426 -2.14231 0
      vertex 5.72091 -2.81278 0
    endloop
  endfacet
  facet normal -0 0 -1
    outer loop
      vertex 6.33345 0.726695 0
      vertex 3.353 0.384721 0
      vertex 6.20933 1.44392 0
    endloop
  endfacet
  facet normal 0 0 -1
    outer loop
      vertex 3.02872 -1.48912 0
      vertex 5.72091 -2.81278 0
      vertex 5.36299 -3.44658 0
    endloop
  endfacet
  facet normal 0 0 -1
    outer loop
      vertex 3.28729 0.764426 0
      vertex 6.20933 1.44392 0
      vertex 3.353 0.384721 0
    endloop
  endfacet
  facet normal 0 0 -1
    outer loop
      vertex 2.83923 -1.82466 0
      vertex 5.36299 -3.44658 0
      vertex 4.93515 -4.03545 0
    endloop
  endfacet
  facet normal -0 0 -1
    outer loop
      vertex 6.20933 1.44392 0
      vertex 3.28729 0.764426 0
      vertex 6.00426 2.14231 0
    endloop
  endfacet
  facet normal 0 0 -1
    outer loop
      vertex 2.61273 -2.13642 0
      vertex 4.93515 -4.03545 0
      vertex 4.44298 -4.57171 0
    endloop
  endfacet
  facet normal 0 0 -1
    outer loop
      vertex 3.17872 1.13417 0
      vertex 6.00426 2.14231 0
      vertex 3.28729 0.764426 0
    endloop
  endfacet
  facet normal 0 0 -1
    outer loop
      vertex 2.35216 -2.42032 0
      vertex 4.44298 -4.57171 0
      vertex 3.89288 -5.04838 0
    endloop
  endfacet
  facet normal -0 0 -1
    outer loop
      vertex 6.00426 2.14231 0
      vertex 3.17872 1.13417 0
      vertex 5.72091 2.81278 0
    endloop
  endfacet
  facet normal 0 0 -1
    outer loop
      vertex 3.02872 1.48912 0
      vertex 5.72091 2.81278 0
      vertex 3.17872 1.13417 0
    endloop
  endfacet
  facet normal 0 0 -1
    outer loop
      vertex 6.33345 -0.726695 0
      vertex 3.353 -0.384721 0
      vertex 3.375 0 0
    endloop
  endfacet
  facet normal 0 0 -1
    outer loop
      vertex 2.06094 -2.67267 0
      vertex 3.89288 -5.04838 0
      vertex 3.29203 -5.45922 0
    endloop
  endfacet
  facet normal 0 0 -1
    outer loop
      vertex 6.20933 -1.44392 0
      vertex 3.28729 -0.764426 0
      vertex 3.353 -0.384721 0
    endloop
  endfacet
  facet normal 0 0 -1
    outer loop
      vertex 6.00426 -2.14231 0
      vertex 3.17872 -1.13417 0
      vertex 3.28729 -0.764426 0
    endloop
  endfacet
  facet normal 0 0 -1
    outer loop
      vertex 5.72091 -2.81278 0
      vertex 3.02872 -1.48912 0
      vertex 3.17872 -1.13417 0
    endloop
  endfacet
  facet normal 0 0 -1
    outer loop
      vertex 5.36299 -3.44658 0
      vertex 2.83923 -1.82466 0
      vertex 3.02872 -1.48912 0
    endloop
  endfacet
  facet normal 0 0 -1
    outer loop
      vertex 1.74284 -2.89018 0
      vertex 3.29203 -5.45922 0
      vertex 2.64827 -5.7989 0
    endloop
  endfacet
  facet normal 0 0 -1
    outer loop
      vertex 4.93515 -4.03545 0
      vertex 2.61273 -2.13642 0
      vertex 2.83923 -1.82466 0
    endloop
  endfacet
  facet normal 0 0 -1
    outer loop
      vertex 4.44298 -4.57171 0
      vertex 2.35216 -2.42032 0
      vertex 2.61273 -2.13642 0
    endloop
  endfacet
  facet normal 0 0 -1
    outer loop
      vertex 3.89288 -5.04838 0
      vertex 2.06094 -2.67267 0
      vertex 2.35216 -2.42032 0
    endloop
  endfacet
  facet normal 0 0 -1
    outer loop
      vertex 1.40203 -3.07001 0
      vertex 2.64827 -5.7989 0
      vertex 1.96998 -6.06298 0
    endloop
  endfacet
  facet normal 0 0 -1
    outer loop
      vertex 3.29203 -5.45922 0
      vertex 1.74284 -2.89018 0
      vertex 2.06094 -2.67267 0
    endloop
  endfacet
  facet normal 0 0 -1
    outer loop
      vertex 2.64827 -5.7989 0
      vertex 1.40203 -3.07001 0
      vertex 1.74284 -2.89018 0
    endloop
  endfacet
  facet normal 0 0 -1
    outer loop
      vertex 1.04293 -3.20982 0
      vertex 1.96998 -6.06298 0
      vertex 1.26601 -6.24803 0
    endloop
  endfacet
  facet normal 0 0 -1
    outer loop
      vertex 1.96998 -6.06298 0
      vertex 1.04293 -3.20982 0
      vertex 1.40203 -3.07001 0
    endloop
  endfacet
  facet normal 0 0 -1
    outer loop
      vertex 1.26601 -6.24803 0
      vertex 0.670242 -3.30778 0
      vertex 1.04293 -3.20982 0
    endloop
  endfacet
  facet normal 0 0 -1
    outer loop
      vertex 0.54554 -6.35161 0
      vertex 0.670242 -3.30778 0
      vertex 1.26601 -6.24803 0
    endloop
  endfacet
  facet normal 0 0 -1
    outer loop
      vertex 0.54554 -6.35161 0
      vertex 0.288815 -3.36262 0
      vertex 0.670242 -3.30778 0
    endloop
  endfacet
  facet normal 0 0 -1
    outer loop
      vertex 0.54554 -6.35161 0
      vertex -0.0963764 -3.37362 0
      vertex 0.288815 -3.36262 0
    endloop
  endfacet
  facet normal 0 0 -1
    outer loop
      vertex -0.182044 -6.3724 0
      vertex -0.0963764 -3.37362 0
      vertex 0.54554 -6.35161 0
    endloop
  endfacet
  facet normal 0 0 -1
    outer loop
      vertex -0.182044 -6.3724 0
      vertex -0.480312 -3.34065 0
      vertex -0.0963764 -3.37362 0
    endloop
  endfacet
  facet normal 0 0 -1
    outer loop
      vertex -0.907257 -6.31011 0
      vertex -0.480312 -3.34065 0
      vertex -0.182044 -6.3724 0
    endloop
  endfacet
  facet normal -0 0 -1
    outer loop
      vertex -0.480312 -3.34065 0
      vertex -0.907257 -6.31011 0
      vertex -0.857986 -3.26412 0
    endloop
  endfacet
  facet normal 0 0 -1
    outer loop
      vertex -1.62064 -6.16556 0
      vertex -0.857986 -3.26412 0
      vertex -0.907257 -6.31011 0
    endloop
  endfacet
  facet normal -0 0 -1
    outer loop
      vertex -0.857986 -3.26412 0
      vertex -1.62064 -6.16556 0
      vertex -1.22448 -3.14504 0
    endloop
  endfacet
  facet normal 0 0 -1
    outer loop
      vertex -2.3129 -5.94063 0
      vertex -1.22448 -3.14504 0
      vertex -1.62064 -6.16556 0
    endloop
  endfacet
  facet normal -0 0 -1
    outer loop
      vertex -1.22448 -3.14504 0
      vertex -2.3129 -5.94063 0
      vertex -1.575 -2.98496 0
    endloop
  endfacet
  facet normal 0 0 -1
    outer loop
      vertex -2.975 -5.63826 0
      vertex -1.575 -2.98496 0
      vertex -2.3129 -5.94063 0
    endloop
  endfacet
  facet normal -0 0 -1
    outer loop
      vertex -1.575 -2.98496 0
      vertex -2.975 -5.63826 0
      vertex -1.90499 -2.78597 0
    endloop
  endfacet
  facet normal 0 0 -1
    outer loop
      vertex -3.59832 -5.26238 0
      vertex -1.90499 -2.78597 0
      vertex -2.975 -5.63826 0
    endloop
  endfacet
  facet normal -0 0 -1
    outer loop
      vertex -1.90499 -2.78597 0
      vertex -3.59832 -5.26238 0
      vertex -2.21015 -2.55065 0
    endloop
  endfacet
  facet normal 0 0 -1
    outer loop
      vertex -4.17474 -4.8179 0
      vertex -2.21015 -2.55065 0
      vertex -3.59832 -5.26238 0
    endloop
  endfacet
  facet normal -0 0 -1
    outer loop
      vertex -2.21015 -2.55065 0
      vertex -4.17474 -4.8179 0
      vertex -2.4865 -2.28209 0
    endloop
  endfacet
  facet normal 0 0 -1
    outer loop
      vertex -4.69672 -4.31061 0
      vertex -2.4865 -2.28209 0
      vertex -4.17474 -4.8179 0
    endloop
  endfacet
  facet normal -0 0 -1
    outer loop
      vertex -2.4865 -2.28209 0
      vertex -4.69672 -4.31061 0
      vertex -2.73043 -1.98378 0
    endloop
  endfacet
  facet normal 0 0 -1
    outer loop
      vertex -5.15748 -3.74713 0
      vertex -2.73043 -1.98378 0
      vertex -4.69672 -4.31061 0
    endloop
  endfacet
  facet normal -0 0 -1
    outer loop
      vertex -2.73043 -1.98378 0
      vertex -5.15748 -3.74713 0
      vertex -2.93877 -1.6596 0
    endloop
  endfacet
  facet normal -0 0 -1
    outer loop
      vertex -2.93877 -1.6596 0
      vertex -5.55101 -3.1348 0
      vertex -3.10879 -1.31379 0
    endloop
  endfacet
  facet normal 0 0 -1
    outer loop
      vertex -5.55101 -3.1348 0
      vertex -2.93877 -1.6596 0
      vertex -5.15748 -3.74713 0
    endloop
  endfacet
  facet normal -0 0 -1
    outer loop
      vertex 5.72091 2.81278 0
      vertex 3.02872 1.48912 0
      vertex 5.36299 3.44658 0
    endloop
  endfacet
  facet normal 0 0 -1
    outer loop
      vertex 2.83923 1.82466 0
      vertex 5.36299 3.44658 0
      vertex 3.02872 1.48912 0
    endloop
  endfacet
  facet normal -0 0 -1
    outer loop
      vertex 5.36299 3.44658 0
      vertex 2.83923 1.82466 0
      vertex 4.93515 4.03545 0
    endloop
  endfacet
  facet normal 0 0 -1
    outer loop
      vertex 2.61273 2.13642 0
      vertex 4.93515 4.03545 0
      vertex 2.83923 1.82466 0
    endloop
  endfacet
  facet normal -0 0 -1
    outer loop
      vertex 4.93515 4.03545 0
      vertex 2.61273 2.13642 0
      vertex 4.44298 4.57171 0
    endloop
  endfacet
  facet normal 0 0 -1
    outer loop
      vertex 2.35216 2.42032 0
      vertex 4.44298 4.57171 0
      vertex 2.61273 2.13642 0
    endloop
  endfacet
  facet normal -0 0 -1
    outer loop
      vertex 4.44298 4.57171 0
      vertex 2.35216 2.42032 0
      vertex 3.89288 5.04838 0
    endloop
  endfacet
  facet normal 0 0 -1
    outer loop
      vertex 2.06094 2.67267 0
      vertex 3.89288 5.04838 0
      vertex 2.35216 2.42032 0
    endloop
  endfacet
  facet normal -0 0 -1
    outer loop
      vertex 3.89288 5.04838 0
      vertex 2.06094 2.67267 0
      vertex 3.29203 5.45922 0
    endloop
  endfacet
  facet normal 0 0 -1
    outer loop
      vertex 1.74284 2.89018 0
      vertex 3.29203 5.45922 0
      vertex 2.06094 2.67267 0
    endloop
  endfacet
  facet normal -0 0 -1
    outer loop
      vertex 3.29203 5.45922 0
      vertex 1.74284 2.89018 0
      vertex 2.64827 5.7989 0
    endloop
  endfacet
  facet normal 0 0 -1
    outer loop
      vertex 1.40203 3.07001 0
      vertex 2.64827 5.7989 0
      vertex 1.74284 2.89018 0
    endloop
  endfacet
  facet normal -0 0 -1
    outer loop
      vertex 2.64827 5.7989 0
      vertex 1.40203 3.07001 0
      vertex 1.96998 6.06298 0
    endloop
  endfacet
  facet normal 0 0 -1
    outer loop
      vertex 1.04293 3.20982 0
      vertex 1.96998 6.06298 0
      vertex 1.40203 3.07001 0
    endloop
  endfacet
  facet normal -0 0 -1
    outer loop
      vertex 1.96998 6.06298 0
      vertex 1.04293 3.20982 0
      vertex 1.26601 6.24803 0
    endloop
  endfacet
  facet normal 0 0 -1
    outer loop
      vertex 0.670242 3.30778 0
      vertex 1.26601 6.24803 0
      vertex 1.04293 3.20982 0
    endloop
  endfacet
  facet normal 0 0 -1
    outer loop
      vertex 0.670242 3.30778 0
      vertex 0.54554 6.35161 0
      vertex 1.26601 6.24803 0
    endloop
  endfacet
  facet normal 0 0 -1
    outer loop
      vertex 0.288815 3.36262 0
      vertex 0.54554 6.35161 0
      vertex 0.670242 3.30778 0
    endloop
  endfacet
  facet normal 0 0 -1
    outer loop
      vertex -0.0963764 3.37362 0
      vertex 0.54554 6.35161 0
      vertex 0.288815 3.36262 0
    endloop
  endfacet
  facet normal 0 0 -1
    outer loop
      vertex -0.0963764 3.37362 0
      vertex -0.182044 6.3724 0
      vertex 0.54554 6.35161 0
    endloop
  endfacet
  facet normal 0 0 -1
    outer loop
      vertex -0.480312 3.34065 0
      vertex -0.182044 6.3724 0
      vertex -0.0963764 3.37362 0
    endloop
  endfacet
  facet normal 0 0 -1
    outer loop
      vertex -0.907257 6.31011 0
      vertex -0.480312 3.34065 0
      vertex -0.857986 3.26412 0
    endloop
  endfacet
  facet normal 0 0 -1
    outer loop
      vertex -0.480312 3.34065 0
      vertex -0.907257 6.31011 0
      vertex -0.182044 6.3724 0
    endloop
  endfacet
  facet normal 0 0 -1
    outer loop
      vertex -1.62064 6.16556 0
      vertex -0.857986 3.26412 0
      vertex -1.22448 3.14504 0
    endloop
  endfacet
  facet normal 0 0 -1
    outer loop
      vertex -2.3129 5.94063 0
      vertex -1.22448 3.14504 0
      vertex -1.575 2.98496 0
    endloop
  endfacet
  facet normal 0 0 -1
    outer loop
      vertex -0.857986 3.26412 0
      vertex -1.62064 6.16556 0
      vertex -0.907257 6.31011 0
    endloop
  endfacet
  facet normal 0 0 -1
    outer loop
      vertex -2.975 5.63826 0
      vertex -1.575 2.98496 0
      vertex -1.90499 2.78597 0
    endloop
  endfacet
  facet normal 0 0 -1
    outer loop
      vertex -3.59832 5.26238 0
      vertex -1.90499 2.78597 0
      vertex -2.21015 2.55065 0
    endloop
  endfacet
  facet normal 0 0 -1
    outer loop
      vertex -1.22448 3.14504 0
      vertex -2.3129 5.94063 0
      vertex -1.62064 6.16556 0
    endloop
  endfacet
  facet normal 0 0 -1
    outer loop
      vertex -4.17474 4.8179 0
      vertex -2.21015 2.55065 0
      vertex -2.4865 2.28209 0
    endloop
  endfacet
  facet normal 0 0 -1
    outer loop
      vertex -4.69672 4.31061 0
      vertex -2.4865 2.28209 0
      vertex -2.73043 1.98378 0
    endloop
  endfacet
  facet normal 0 0 -1
    outer loop
      vertex -5.15748 3.74713 0
      vertex -2.73043 1.98378 0
      vertex -2.93877 1.6596 0
    endloop
  endfacet
  facet normal 0 0 -1
    outer loop
      vertex -1.575 2.98496 0
      vertex -2.975 5.63826 0
      vertex -2.3129 5.94063 0
    endloop
  endfacet
  facet normal 0 0 -1
    outer loop
      vertex -5.55101 3.1348 0
      vertex -2.93877 1.6596 0
      vertex -3.10879 1.31379 0
    endloop
  endfacet
  facet normal 0 0 -1
    outer loop
      vertex -5.87216 2.4816 0
      vertex -3.10879 1.31379 0
      vertex -3.23829 0.950847 0
    endloop
  endfacet
  facet normal 0 0 -1
    outer loop
      vertex -6.11677 1.79604 0
      vertex -3.23829 0.950847 0
      vertex -3.32557 0.575512 0
    endloop
  endfacet
  facet normal 0 0 -1
    outer loop
      vertex -6.28163 1.08708 0
      vertex -3.32557 0.575512 0
      vertex -3.3695 0.192675 0
    endloop
  endfacet
  facet normal 0 0 -1
    outer loop
      vertex -1.90499 2.78597 0
      vertex -3.59832 5.26238 0
      vertex -2.975 5.63826 0
    endloop
  endfacet
  facet normal 0 0 -1
    outer loop
      vertex -5.87216 -2.4816 0
      vertex -3.10879 -1.31379 0
      vertex -5.55101 -3.1348 0
    endloop
  endfacet
  facet normal -0 0 -1
    outer loop
      vertex -3.10879 -1.31379 0
      vertex -5.87216 -2.4816 0
      vertex -3.23829 -0.950847 0
    endloop
  endfacet
  facet normal 0 0 -1
    outer loop
      vertex -2.21015 2.55065 0
      vertex -4.17474 4.8179 0
      vertex -3.59832 5.26238 0
    endloop
  endfacet
  facet normal 0 0 -1
    outer loop
      vertex -6.11677 -1.79604 0
      vertex -3.23829 -0.950847 0
      vertex -5.87216 -2.4816 0
    endloop
  endfacet
  facet normal 0 0 -1
    outer loop
      vertex -2.4865 2.28209 0
      vertex -4.69672 4.31061 0
      vertex -4.17474 4.8179 0
    endloop
  endfacet
  facet normal -0 0 -1
    outer loop
      vertex -3.23829 -0.950847 0
      vertex -6.11677 -1.79604 0
      vertex -3.32557 -0.575512 0
    endloop
  endfacet
  facet normal 0 0 -1
    outer loop
      vertex -2.73043 1.98378 0
      vertex -5.15748 3.74713 0
      vertex -4.69672 4.31061 0
    endloop
  endfacet
  facet normal 0 0 -1
    outer loop
      vertex -6.28163 -1.08708 0
      vertex -3.32557 -0.575512 0
      vertex -6.11677 -1.79604 0
    endloop
  endfacet
  facet normal 0 0 -1
    outer loop
      vertex -2.93877 1.6596 0
      vertex -5.55101 3.1348 0
      vertex -5.15748 3.74713 0
    endloop
  endfacet
  facet normal -0 0 -1
    outer loop
      vertex -3.32557 -0.575512 0
      vertex -6.28163 -1.08708 0
      vertex -3.3695 -0.192675 0
    endloop
  endfacet
  facet normal 0 0 -1
    outer loop
      vertex -3.10879 1.31379 0
      vertex -5.87216 2.4816 0
      vertex -5.55101 3.1348 0
    endloop
  endfacet
  facet normal 0 0 -1
    outer loop
      vertex -6.3646 -0.36394 0
      vertex -3.3695 -0.192675 0
      vertex -6.28163 -1.08708 0
    endloop
  endfacet
  facet normal 0 0 -1
    outer loop
      vertex -3.23829 0.950847 0
      vertex -6.11677 1.79604 0
      vertex -5.87216 2.4816 0
    endloop
  endfacet
  facet normal -0 0 -1
    outer loop
      vertex -3.3695 -0.192675 0
      vertex -6.3646 -0.36394 0
      vertex -3.3695 0.192675 0
    endloop
  endfacet
  facet normal 0 0 -1
    outer loop
      vertex -3.32557 0.575512 0
      vertex -6.28163 1.08708 0
      vertex -6.11677 1.79604 0
    endloop
  endfacet
  facet normal 0 0 -1
    outer loop
      vertex -6.3646 0.36394 0
      vertex -3.3695 0.192675 0
      vertex -6.3646 -0.36394 0
    endloop
  endfacet
  facet normal 0 0 -1
    outer loop
      vertex -3.3695 0.192675 0
      vertex -6.3646 0.36394 0
      vertex -6.28163 1.08708 0
    endloop
  endfacet
  facet normal 0.921124 0.389269 0
    outer loop
      vertex 6.00426 2.14231 18
      vertex 5.72091 2.81278 0
      vertex 5.72091 2.81278 18
    endloop
  endfacet
  facet normal 0.921124 0.389269 0
    outer loop
      vertex 5.72091 2.81278 0
      vertex 6.00426 2.14231 18
      vertex 6.00426 2.14231 0
    endloop
  endfacet
  facet normal 0.985354 0.170522 0
    outer loop
      vertex 6.33345 0.726695 18
      vertex 6.20933 1.44392 0
      vertex 6.20933 1.44392 18
    endloop
  endfacet
  facet normal 0.985354 0.170522 0
    outer loop
      vertex 6.20933 1.44392 0
      vertex 6.33345 0.726695 18
      vertex 6.33345 0.726695 0
    endloop
  endfacet
  facet normal 0.254219 0.967147 -0
    outer loop
      vertex 1.96998 6.06298 0
      vertex 1.26601 6.24803 18
      vertex 1.96998 6.06298 18
    endloop
  endfacet
  facet normal 0.254219 0.967147 0
    outer loop
      vertex 1.26601 6.24803 18
      vertex 1.96998 6.06298 0
      vertex 1.26601 6.24803 0
    endloop
  endfacet
  facet normal -0.941844 0.336049 0
    outer loop
      vertex -6.11677 1.79604 0
      vertex -5.87216 2.4816 18
      vertex -5.87216 2.4816 0
    endloop
  endfacet
  facet normal -0.941844 0.336049 0
    outer loop
      vertex -5.87216 2.4816 18
      vertex -6.11677 1.79604 0
      vertex -6.11677 1.79604 18
    endloop
  endfacet
  facet normal -0.897398 0.441221 0
    outer loop
      vertex -5.87216 2.4816 0
      vertex -5.55101 3.1348 18
      vertex -5.55101 3.1348 0
    endloop
  endfacet
  facet normal -0.897398 0.441221 0
    outer loop
      vertex -5.55101 3.1348 18
      vertex -5.87216 2.4816 0
      vertex -5.87216 2.4816 18
    endloop
  endfacet
  facet normal -0.974012 0.226497 0
    outer loop
      vertex -6.28163 1.08708 0
      vertex -6.11677 1.79604 18
      vertex -6.11677 1.79604 0
    endloop
  endfacet
  facet normal -0.974012 0.226497 0
    outer loop
      vertex -6.11677 1.79604 18
      vertex -6.28163 1.08708 0
      vertex -6.28163 1.08708 18
    endloop
  endfacet
  facet normal -0.19859 0.980083 0
    outer loop
      vertex -0.907257 6.31011 0
      vertex -1.62064 6.16556 18
      vertex -0.907257 6.31011 18
    endloop
  endfacet
  facet normal -0.19859 0.980083 0
    outer loop
      vertex -1.62064 6.16556 18
      vertex -0.907257 6.31011 0
      vertex -1.62064 6.16556 0
    endloop
  endfacet
  facet normal 0.254219 -0.967147 0
    outer loop
      vertex 1.26601 -6.24803 0
      vertex 1.96998 -6.06298 18
      vertex 1.26601 -6.24803 18
    endloop
  endfacet
  facet normal 0.254219 -0.967147 0
    outer loop
      vertex 1.96998 -6.06298 18
      vertex 1.26601 -6.24803 0
      vertex 1.96998 -6.06298 0
    endloop
  endfacet
  facet normal 0.142314 -0.989822 0
    outer loop
      vertex 0.54554 -6.35161 0
      vertex 1.26601 -6.24803 18
      vertex 0.54554 -6.35161 18
    endloop
  endfacet
  facet normal 0.142314 -0.989822 0
    outer loop
      vertex 1.26601 -6.24803 18
      vertex 0.54554 -6.35161 0
      vertex 1.26601 -6.24803 0
    endloop
  endfacet
  facet normal 0.736741 -0.676175 0
    outer loop
      vertex 4.44298 -4.57171 18
      vertex 4.93515 -4.03545 0
      vertex 4.93515 -4.03545 18
    endloop
  endfacet
  facet normal 0.736741 -0.676175 0
    outer loop
      vertex 4.93515 -4.03545 0
      vertex 4.44298 -4.57171 18
      vertex 4.44298 -4.57171 0
    endloop
  endfacet
  facet normal -0.19859 -0.980083 0
    outer loop
      vertex -1.62064 -6.16556 0
      vertex -0.907257 -6.31011 18
      vertex -1.62064 -6.16556 18
    endloop
  endfacet
  facet normal -0.19859 -0.980083 -0
    outer loop
      vertex -0.907257 -6.31011 18
      vertex -1.62064 -6.16556 0
      vertex -0.907257 -6.31011 0
    endloop
  endfacet
  facet normal -0.696938 -0.717131 0
    outer loop
      vertex -4.69672 -4.31061 0
      vertex -4.17474 -4.8179 18
      vertex -4.69672 -4.31061 18
    endloop
  endfacet
  facet normal -0.696938 -0.717131 -0
    outer loop
      vertex -4.17474 -4.8179 18
      vertex -4.69672 -4.31061 0
      vertex -4.17474 -4.8179 0
    endloop
  endfacet
  facet normal -0.774141 -0.633013 0
    outer loop
      vertex -4.69672 -4.31061 0
      vertex -5.15748 -3.74713 18
      vertex -5.15748 -3.74713 0
    endloop
  endfacet
  facet normal -0.774141 -0.633013 0
    outer loop
      vertex -5.15748 -3.74713 18
      vertex -4.69672 -4.31061 0
      vertex -4.69672 -4.31061 18
    endloop
  endfacet
  facet normal -0.993482 -0.11399 0
    outer loop
      vertex -6.28163 -1.08708 0
      vertex -6.3646 -0.36394 18
      vertex -6.3646 -0.36394 0
    endloop
  endfacet
  facet normal -0.993482 -0.11399 0
    outer loop
      vertex -6.3646 -0.36394 18
      vertex -6.28163 -1.08708 0
      vertex -6.28163 -1.08708 18
    endloop
  endfacet
  facet normal 0.959493 0.281733 0
    outer loop
      vertex 6.20933 1.44392 18
      vertex 6.00426 2.14231 0
      vertex 6.00426 2.14231 18
    endloop
  endfacet
  facet normal 0.959493 0.281733 0
    outer loop
      vertex 6.00426 2.14231 0
      vertex 6.20933 1.44392 18
      vertex 6.20933 1.44392 0
    endloop
  endfacet
  facet normal 0.809017 0.587785 0
    outer loop
      vertex 5.36299 3.44658 18
      vertex 4.93515 4.03545 0
      vertex 4.93515 4.03545 18
    endloop
  endfacet
  facet normal 0.809017 0.587785 0
    outer loop
      vertex 4.93515 4.03545 0
      vertex 5.36299 3.44658 18
      vertex 5.36299 3.44658 0
    endloop
  endfacet
  facet normal 0.870746 0.491734 0
    outer loop
      vertex 5.72091 2.81278 18
      vertex 5.36299 3.44658 0
      vertex 5.36299 3.44658 18
    endloop
  endfacet
  facet normal 0.870746 0.491734 0
    outer loop
      vertex 5.36299 3.44658 0
      vertex 5.72091 2.81278 18
      vertex 5.72091 2.81278 0
    endloop
  endfacet
  facet normal 0.142314 0.989822 -0
    outer loop
      vertex 1.26601 6.24803 0
      vertex 0.54554 6.35161 18
      vertex 1.26601 6.24803 18
    endloop
  endfacet
  facet normal 0.142314 0.989822 0
    outer loop
      vertex 0.54554 6.35161 18
      vertex 1.26601 6.24803 0
      vertex 0.54554 6.35161 0
    endloop
  endfacet
  facet normal 0.028556 0.999592 -0
    outer loop
      vertex 0.54554 6.35161 0
      vertex -0.182044 6.3724 18
      vertex 0.54554 6.35161 18
    endloop
  endfacet
  facet normal 0.028556 0.999592 0
    outer loop
      vertex -0.182044 6.3724 18
      vertex 0.54554 6.35161 0
      vertex -0.182044 6.3724 0
    endloop
  endfacet
  facet normal 0.466667 0.884433 -0
    outer loop
      vertex 3.29203 5.45922 0
      vertex 2.64827 5.7989 18
      vertex 3.29203 5.45922 18
    endloop
  endfacet
  facet normal 0.466667 0.884433 0
    outer loop
      vertex 2.64827 5.7989 18
      vertex 3.29203 5.45922 0
      vertex 2.64827 5.7989 0
    endloop
  endfacet
  facet normal 0.564444 0.825472 -0
    outer loop
      vertex 3.89288 5.04838 0
      vertex 3.29203 5.45922 18
      vertex 3.89288 5.04838 18
    endloop
  endfacet
  facet normal 0.564444 0.825472 0
    outer loop
      vertex 3.29203 5.45922 18
      vertex 3.89288 5.04838 0
      vertex 3.29203 5.45922 0
    endloop
  endfacet
  facet normal -0.841254 0.54064 0
    outer loop
      vertex -5.55101 3.1348 0
      vertex -5.15748 3.74713 18
      vertex -5.15748 3.74713 0
    endloop
  endfacet
  facet normal -0.841254 0.54064 0
    outer loop
      vertex -5.15748 3.74713 18
      vertex -5.55101 3.1348 0
      vertex -5.55101 3.1348 18
    endloop
  endfacet
  facet normal -0.993482 0.11399 0
    outer loop
      vertex -6.3646 0.36394 0
      vertex -6.28163 1.08708 18
      vertex -6.28163 1.08708 0
    endloop
  endfacet
  facet normal -0.993482 0.11399 0
    outer loop
      vertex -6.28163 1.08708 18
      vertex -6.3646 0.36394 0
      vertex -6.3646 0.36394 18
    endloop
  endfacet
  facet normal 0 0 1
    outer loop
      vertex 3.375 0 18
      vertex 6.375 0 18
      vertex 6.33345 0.726695 18
    endloop
  endfacet
  facet normal 0 0 1
    outer loop
      vertex 3.353 0.384721 18
      vertex 6.33345 0.726695 18
      vertex 6.20933 1.44392 18
    endloop
  endfacet
  facet normal 0 0 1
    outer loop
      vertex 6.375 0 18
      vertex 3.375 0 18
      vertex 6.33345 -0.726695 18
    endloop
  endfacet
  facet normal 0 0 1
    outer loop
      vertex 3.28729 0.764426 18
      vertex 6.20933 1.44392 18
      vertex 6.00426 2.14231 18
    endloop
  endfacet
  facet normal -0 0 1
    outer loop
      vertex 3.353 -0.384721 18
      vertex 6.33345 -0.726695 18
      vertex 3.375 0 18
    endloop
  endfacet
  facet normal 0 0 1
    outer loop
      vertex 3.17872 1.13417 18
      vertex 6.00426 2.14231 18
      vertex 5.72091 2.81278 18
    endloop
  endfacet
  facet normal 0 0 1
    outer loop
      vertex 6.33345 -0.726695 18
      vertex 3.353 -0.384721 18
      vertex 6.20933 -1.44392 18
    endloop
  endfacet
  facet normal 0 0 1
    outer loop
      vertex 3.02872 1.48912 18
      vertex 5.72091 2.81278 18
      vertex 5.36299 3.44658 18
    endloop
  endfacet
  facet normal -0 0 1
    outer loop
      vertex 3.28729 -0.764426 18
      vertex 6.20933 -1.44392 18
      vertex 3.353 -0.384721 18
    endloop
  endfacet
  facet normal 0 0 1
    outer loop
      vertex 2.83923 1.82466 18
      vertex 5.36299 3.44658 18
      vertex 4.93515 4.03545 18
    endloop
  endfacet
  facet normal 0 0 1
    outer loop
      vertex 6.20933 -1.44392 18
      vertex 3.28729 -0.764426 18
      vertex 6.00426 -2.14231 18
    endloop
  endfacet
  facet normal 0 0 1
    outer loop
      vertex 2.61273 2.13642 18
      vertex 4.93515 4.03545 18
      vertex 4.44298 4.57171 18
    endloop
  endfacet
  facet normal -0 0 1
    outer loop
      vertex 3.17872 -1.13417 18
      vertex 6.00426 -2.14231 18
      vertex 3.28729 -0.764426 18
    endloop
  endfacet
  facet normal 0 0 1
    outer loop
      vertex 2.35216 2.42032 18
      vertex 4.44298 4.57171 18
      vertex 3.89288 5.04838 18
    endloop
  endfacet
  facet normal 0 0 1
    outer loop
      vertex 6.00426 -2.14231 18
      vertex 3.17872 -1.13417 18
      vertex 5.72091 -2.81278 18
    endloop
  endfacet
  facet normal -0 0 1
    outer loop
      vertex 3.02872 -1.48912 18
      vertex 5.72091 -2.81278 18
      vertex 3.17872 -1.13417 18
    endloop
  endfacet
  facet normal 0 0 1
    outer loop
      vertex 6.33345 0.726695 18
      vertex 3.353 0.384721 18
      vertex 3.375 0 18
    endloop
  endfacet
  facet normal 0 0 1
    outer loop
      vertex 2.06094 2.67267 18
      vertex 3.89288 5.04838 18
      vertex 3.29203 5.45922 18
    endloop
  endfacet
  facet normal 0 0 1
    outer loop
      vertex 6.20933 1.44392 18
      vertex 3.28729 0.764426 18
      vertex 3.353 0.384721 18
    endloop
  endfacet
  facet normal 0 0 1
    outer loop
      vertex 6.00426 2.14231 18
      vertex 3.17872 1.13417 18
      vertex 3.28729 0.764426 18
    endloop
  endfacet
  facet normal 0 0 1
    outer loop
      vertex 5.72091 2.81278 18
      vertex 3.02872 1.48912 18
      vertex 3.17872 1.13417 18
    endloop
  endfacet
  facet normal 0 0 1
    outer loop
      vertex 5.36299 3.44658 18
      vertex 2.83923 1.82466 18
      vertex 3.02872 1.48912 18
    endloop
  endfacet
  facet normal 0 0 1
    outer loop
      vertex 1.74284 2.89018 18
      vertex 3.29203 5.45922 18
      vertex 2.64827 5.7989 18
    endloop
  endfacet
  facet normal 0 0 1
    outer loop
      vertex 4.93515 4.03545 18
      vertex 2.61273 2.13642 18
      vertex 2.83923 1.82466 18
    endloop
  endfacet
  facet normal 0 0 1
    outer loop
      vertex 4.44298 4.57171 18
      vertex 2.35216 2.42032 18
      vertex 2.61273 2.13642 18
    endloop
  endfacet
  facet normal 0 0 1
    outer loop
      vertex 3.89288 5.04838 18
      vertex 2.06094 2.67267 18
      vertex 2.35216 2.42032 18
    endloop
  endfacet
  facet normal 0 0 1
    outer loop
      vertex 1.40203 3.07001 18
      vertex 2.64827 5.7989 18
      vertex 1.96998 6.06298 18
    endloop
  endfacet
  facet normal 0 0 1
    outer loop
      vertex 3.29203 5.45922 18
      vertex 1.74284 2.89018 18
      vertex 2.06094 2.67267 18
    endloop
  endfacet
  facet normal 0 0 1
    outer loop
      vertex 2.64827 5.7989 18
      vertex 1.40203 3.07001 18
      vertex 1.74284 2.89018 18
    endloop
  endfacet
  facet normal 0 0 1
    outer loop
      vertex 1.04293 3.20982 18
      vertex 1.96998 6.06298 18
      vertex 1.26601 6.24803 18
    endloop
  endfacet
  facet normal 0 0 1
    outer loop
      vertex 1.96998 6.06298 18
      vertex 1.04293 3.20982 18
      vertex 1.40203 3.07001 18
    endloop
  endfacet
  facet normal 0 0 1
    outer loop
      vertex 1.26601 6.24803 18
      vertex 0.670242 3.30778 18
      vertex 1.04293 3.20982 18
    endloop
  endfacet
  facet normal 0 0 1
    outer loop
      vertex 0.54554 6.35161 18
      vertex 0.670242 3.30778 18
      vertex 1.26601 6.24803 18
    endloop
  endfacet
  facet normal 0 0 1
    outer loop
      vertex 0.54554 6.35161 18
      vertex 0.288815 3.36262 18
      vertex 0.670242 3.30778 18
    endloop
  endfacet
  facet normal 0 0 1
    outer loop
      vertex 0.54554 6.35161 18
      vertex -0.0963764 3.37362 18
      vertex 0.288815 3.36262 18
    endloop
  endfacet
  facet normal 0 0 1
    outer loop
      vertex -0.182044 6.3724 18
      vertex -0.0963764 3.37362 18
      vertex 0.54554 6.35161 18
    endloop
  endfacet
  facet normal 0 0 1
    outer loop
      vertex -0.182044 6.3724 18
      vertex -0.480312 3.34065 18
      vertex -0.0963764 3.37362 18
    endloop
  endfacet
  facet normal -0 0 1
    outer loop
      vertex -0.907257 6.31011 18
      vertex -0.480312 3.34065 18
      vertex -0.182044 6.3724 18
    endloop
  endfacet
  facet normal 0 0 1
    outer loop
      vertex -0.480312 3.34065 18
      vertex -0.907257 6.31011 18
      vertex -0.857986 3.26412 18
    endloop
  endfacet
  facet normal -0 0 1
    outer loop
      vertex -1.62064 6.16556 18
      vertex -0.857986 3.26412 18
      vertex -0.907257 6.31011 18
    endloop
  endfacet
  facet normal 0 0 1
    outer loop
      vertex -0.857986 3.26412 18
      vertex -1.62064 6.16556 18
      vertex -1.22448 3.14504 18
    endloop
  endfacet
  facet normal -0 0 1
    outer loop
      vertex -2.3129 5.94063 18
      vertex -1.22448 3.14504 18
      vertex -1.62064 6.16556 18
    endloop
  endfacet
  facet normal 0 0 1
    outer loop
      vertex -1.22448 3.14504 18
      vertex -2.3129 5.94063 18
      vertex -1.575 2.98496 18
    endloop
  endfacet
  facet normal -0 0 1
    outer loop
      vertex -2.975 5.63826 18
      vertex -1.575 2.98496 18
      vertex -2.3129 5.94063 18
    endloop
  endfacet
  facet normal 0 0 1
    outer loop
      vertex -1.575 2.98496 18
      vertex -2.975 5.63826 18
      vertex -1.90499 2.78597 18
    endloop
  endfacet
  facet normal -0 0 1
    outer loop
      vertex -3.59832 5.26238 18
      vertex -1.90499 2.78597 18
      vertex -2.975 5.63826 18
    endloop
  endfacet
  facet normal 0 0 1
    outer loop
      vertex -1.90499 2.78597 18
      vertex -3.59832 5.26238 18
      vertex -2.21015 2.55065 18
    endloop
  endfacet
  facet normal -0 0 1
    outer loop
      vertex -4.17474 4.8179 18
      vertex -2.21015 2.55065 18
      vertex -3.59832 5.26238 18
    endloop
  endfacet
  facet normal 0 0 1
    outer loop
      vertex -2.21015 2.55065 18
      vertex -4.17474 4.8179 18
      vertex -2.4865 2.28209 18
    endloop
  endfacet
  facet normal -0 0 1
    outer loop
      vertex -4.69672 4.31061 18
      vertex -2.4865 2.28209 18
      vertex -4.17474 4.8179 18
    endloop
  endfacet
  facet normal 0 0 1
    outer loop
      vertex -2.4865 2.28209 18
      vertex -4.69672 4.31061 18
      vertex -2.73043 1.98378 18
    endloop
  endfacet
  facet normal -0 0 1
    outer loop
      vertex -5.15748 3.74713 18
      vertex -2.73043 1.98378 18
      vertex -4.69672 4.31061 18
    endloop
  endfacet
  facet normal 0 0 1
    outer loop
      vertex -2.73043 1.98378 18
      vertex -5.15748 3.74713 18
      vertex -2.93877 1.6596 18
    endloop
  endfacet
  facet normal 0 0 1
    outer loop
      vertex -2.93877 1.6596 18
      vertex -5.55101 3.1348 18
      vertex -3.10879 1.31379 18
    endloop
  endfacet
  facet normal -0 0 1
    outer loop
      vertex -5.55101 3.1348 18
      vertex -2.93877 1.6596 18
      vertex -5.15748 3.74713 18
    endloop
  endfacet
  facet normal 0 0 1
    outer loop
      vertex 5.72091 -2.81278 18
      vertex 3.02872 -1.48912 18
      vertex 5.36299 -3.44658 18
    endloop
  endfacet
  facet normal -0 0 1
    outer loop
      vertex 2.83923 -1.82466 18
      vertex 5.36299 -3.44658 18
      vertex 3.02872 -1.48912 18
    endloop
  endfacet
  facet normal 0 0 1
    outer loop
      vertex 5.36299 -3.44658 18
      vertex 2.83923 -1.82466 18
      vertex 4.93515 -4.03545 18
    endloop
  endfacet
  facet normal -0 0 1
    outer loop
      vertex 2.61273 -2.13642 18
      vertex 4.93515 -4.03545 18
      vertex 2.83923 -1.82466 18
    endloop
  endfacet
  facet normal 0 0 1
    outer loop
      vertex 4.93515 -4.03545 18
      vertex 2.61273 -2.13642 18
      vertex 4.44298 -4.57171 18
    endloop
  endfacet
  facet normal -0 0 1
    outer loop
      vertex 2.35216 -2.42032 18
      vertex 4.44298 -4.57171 18
      vertex 2.61273 -2.13642 18
    endloop
  endfacet
  facet normal 0 0 1
    outer loop
      vertex 4.44298 -4.57171 18
      vertex 2.35216 -2.42032 18
      vertex 3.89288 -5.04838 18
    endloop
  endfacet
  facet normal -0 0 1
    outer loop
      vertex 2.06094 -2.67267 18
      vertex 3.89288 -5.04838 18
      vertex 2.35216 -2.42032 18
    endloop
  endfacet
  facet normal 0 0 1
    outer loop
      vertex 3.89288 -5.04838 18
      vertex 2.06094 -2.67267 18
      vertex 3.29203 -5.45922 18
    endloop
  endfacet
  facet normal -0 0 1
    outer loop
      vertex 1.74284 -2.89018 18
      vertex 3.29203 -5.45922 18
      vertex 2.06094 -2.67267 18
    endloop
  endfacet
  facet normal 0 0 1
    outer loop
      vertex 3.29203 -5.45922 18
      vertex 1.74284 -2.89018 18
      vertex 2.64827 -5.7989 18
    endloop
  endfacet
  facet normal -0 0 1
    outer loop
      vertex 1.40203 -3.07001 18
      vertex 2.64827 -5.7989 18
      vertex 1.74284 -2.89018 18
    endloop
  endfacet
  facet normal 0 0 1
    outer loop
      vertex 2.64827 -5.7989 18
      vertex 1.40203 -3.07001 18
      vertex 1.96998 -6.06298 18
    endloop
  endfacet
  facet normal -0 0 1
    outer loop
      vertex 1.04293 -3.20982 18
      vertex 1.96998 -6.06298 18
      vertex 1.40203 -3.07001 18
    endloop
  endfacet
  facet normal 0 0 1
    outer loop
      vertex 1.96998 -6.06298 18
      vertex 1.04293 -3.20982 18
      vertex 1.26601 -6.24803 18
    endloop
  endfacet
  facet normal -0 0 1
    outer loop
      vertex 0.670242 -3.30778 18
      vertex 1.26601 -6.24803 18
      vertex 1.04293 -3.20982 18
    endloop
  endfacet
  facet normal 0 0 1
    outer loop
      vertex 0.670242 -3.30778 18
      vertex 0.54554 -6.35161 18
      vertex 1.26601 -6.24803 18
    endloop
  endfacet
  facet normal -0 0 1
    outer loop
      vertex 0.288815 -3.36262 18
      vertex 0.54554 -6.35161 18
      vertex 0.670242 -3.30778 18
    endloop
  endfacet
  facet normal -0 0 1
    outer loop
      vertex -0.0963764 -3.37362 18
      vertex 0.54554 -6.35161 18
      vertex 0.288815 -3.36262 18
    endloop
  endfacet
  facet normal 0 0 1
    outer loop
      vertex -0.0963764 -3.37362 18
      vertex -0.182044 -6.3724 18
      vertex 0.54554 -6.35161 18
    endloop
  endfacet
  facet normal 0 0 1
    outer loop
      vertex -0.480312 -3.34065 18
      vertex -0.182044 -6.3724 18
      vertex -0.0963764 -3.37362 18
    endloop
  endfacet
  facet normal 0 0 1
    outer loop
      vertex -0.907257 -6.31011 18
      vertex -0.480312 -3.34065 18
      vertex -0.857986 -3.26412 18
    endloop
  endfacet
  facet normal 0 0 1
    outer loop
      vertex -0.480312 -3.34065 18
      vertex -0.907257 -6.31011 18
      vertex -0.182044 -6.3724 18
    endloop
  endfacet
  facet normal 0 0 1
    outer loop
      vertex -1.62064 -6.16556 18
      vertex -0.857986 -3.26412 18
      vertex -1.22448 -3.14504 18
    endloop
  endfacet
  facet normal 0 0 1
    outer loop
      vertex -2.3129 -5.94063 18
      vertex -1.22448 -3.14504 18
      vertex -1.575 -2.98496 18
    endloop
  endfacet
  facet normal 0 0 1
    outer loop
      vertex -0.857986 -3.26412 18
      vertex -1.62064 -6.16556 18
      vertex -0.907257 -6.31011 18
    endloop
  endfacet
  facet normal 0 0 1
    outer loop
      vertex -2.975 -5.63826 18
      vertex -1.575 -2.98496 18
      vertex -1.90499 -2.78597 18
    endloop
  endfacet
  facet normal 0 0 1
    outer loop
      vertex -3.59832 -5.26238 18
      vertex -1.90499 -2.78597 18
      vertex -2.21015 -2.55065 18
    endloop
  endfacet
  facet normal 0 0 1
    outer loop
      vertex -1.22448 -3.14504 18
      vertex -2.3129 -5.94063 18
      vertex -1.62064 -6.16556 18
    endloop
  endfacet
  facet normal 0 0 1
    outer loop
      vertex -4.17474 -4.8179 18
      vertex -2.21015 -2.55065 18
      vertex -2.4865 -2.28209 18
    endloop
  endfacet
  facet normal 0 0 1
    outer loop
      vertex -4.69672 -4.31061 18
      vertex -2.4865 -2.28209 18
      vertex -2.73043 -1.98378 18
    endloop
  endfacet
  facet normal 0 0 1
    outer loop
      vertex -5.15748 -3.74713 18
      vertex -2.73043 -1.98378 18
      vertex -2.93877 -1.6596 18
    endloop
  endfacet
  facet normal 0 0 1
    outer loop
      vertex -1.575 -2.98496 18
      vertex -2.975 -5.63826 18
      vertex -2.3129 -5.94063 18
    endloop
  endfacet
  facet normal 0 0 1
    outer loop
      vertex -5.55101 -3.1348 18
      vertex -2.93877 -1.6596 18
      vertex -3.10879 -1.31379 18
    endloop
  endfacet
  facet normal 0 0 1
    outer loop
      vertex -5.87216 -2.4816 18
      vertex -3.10879 -1.31379 18
      vertex -3.23829 -0.950847 18
    endloop
  endfacet
  facet normal 0 0 1
    outer loop
      vertex -6.11677 -1.79604 18
      vertex -3.23829 -0.950847 18
      vertex -3.32557 -0.575512 18
    endloop
  endfacet
  facet normal 0 0 1
    outer loop
      vertex -6.28163 -1.08708 18
      vertex -3.32557 -0.575512 18
      vertex -3.3695 -0.192675 18
    endloop
  endfacet
  facet normal 0 0 1
    outer loop
      vertex -1.90499 -2.78597 18
      vertex -3.59832 -5.26238 18
      vertex -2.975 -5.63826 18
    endloop
  endfacet
  facet normal -0 0 1
    outer loop
      vertex -5.87216 2.4816 18
      vertex -3.10879 1.31379 18
      vertex -5.55101 3.1348 18
    endloop
  endfacet
  facet normal 0 0 1
    outer loop
      vertex -3.10879 1.31379 18
      vertex -5.87216 2.4816 18
      vertex -3.23829 0.950847 18
    endloop
  endfacet
  facet normal 0 0 1
    outer loop
      vertex -2.21015 -2.55065 18
      vertex -4.17474 -4.8179 18
      vertex -3.59832 -5.26238 18
    endloop
  endfacet
  facet normal -0 0 1
    outer loop
      vertex -6.11677 1.79604 18
      vertex -3.23829 0.950847 18
      vertex -5.87216 2.4816 18
    endloop
  endfacet
  facet normal 0 0 1
    outer loop
      vertex -2.4865 -2.28209 18
      vertex -4.69672 -4.31061 18
      vertex -4.17474 -4.8179 18
    endloop
  endfacet
  facet normal 0 0 1
    outer loop
      vertex -3.23829 0.950847 18
      vertex -6.11677 1.79604 18
      vertex -3.32557 0.575512 18
    endloop
  endfacet
  facet normal 0 0 1
    outer loop
      vertex -2.73043 -1.98378 18
      vertex -5.15748 -3.74713 18
      vertex -4.69672 -4.31061 18
    endloop
  endfacet
  facet normal -0 0 1
    outer loop
      vertex -6.28163 1.08708 18
      vertex -3.32557 0.575512 18
      vertex -6.11677 1.79604 18
    endloop
  endfacet
  facet normal 0 0 1
    outer loop
      vertex -2.93877 -1.6596 18
      vertex -5.55101 -3.1348 18
      vertex -5.15748 -3.74713 18
    endloop
  endfacet
  facet normal 0 0 1
    outer loop
      vertex -3.32557 0.575512 18
      vertex -6.28163 1.08708 18
      vertex -3.3695 0.192675 18
    endloop
  endfacet
  facet normal 0 0 1
    outer loop
      vertex -3.10879 -1.31379 18
      vertex -5.87216 -2.4816 18
      vertex -5.55101 -3.1348 18
    endloop
  endfacet
  facet normal -0 0 1
    outer loop
      vertex -6.3646 0.36394 18
      vertex -3.3695 0.192675 18
      vertex -6.28163 1.08708 18
    endloop
  endfacet
  facet normal 0 0 1
    outer loop
      vertex -3.23829 -0.950847 18
      vertex -6.11677 -1.79604 18
      vertex -5.87216 -2.4816 18
    endloop
  endfacet
  facet normal 0 0 1
    outer loop
      vertex -3.3695 0.192675 18
      vertex -6.3646 0.36394 18
      vertex -3.3695 -0.192675 18
    endloop
  endfacet
  facet normal 0 0 1
    outer loop
      vertex -3.32557 -0.575512 18
      vertex -6.28163 -1.08708 18
      vertex -6.11677 -1.79604 18
    endloop
  endfacet
  facet normal 0 0 1
    outer loop
      vertex -6.3646 -0.36394 18
      vertex -3.3695 -0.192675 18
      vertex -6.3646 0.36394 18
    endloop
  endfacet
  facet normal 0 0 1
    outer loop
      vertex -3.3695 -0.192675 18
      vertex -6.3646 -0.36394 18
      vertex -6.28163 -1.08708 18
    endloop
  endfacet
  facet normal -0.516398 0.856349 0
    outer loop
      vertex -2.975 5.63826 0
      vertex -3.59832 5.26238 18
      vertex -2.975 5.63826 18
    endloop
  endfacet
  facet normal -0.516398 0.856349 0
    outer loop
      vertex -3.59832 5.26238 18
      vertex -2.975 5.63826 0
      vertex -3.59832 5.26238 0
    endloop
  endfacet
  facet normal -0.610647 0.791903 0
    outer loop
      vertex -3.59832 5.26238 0
      vertex -4.17474 4.8179 18
      vertex -3.59832 5.26238 18
    endloop
  endfacet
  facet normal -0.610647 0.791903 0
    outer loop
      vertex -4.17474 4.8179 18
      vertex -3.59832 5.26238 0
      vertex -4.17474 4.8179 0
    endloop
  endfacet
  facet normal 0.998369 -0.0570895 0
    outer loop
      vertex 6.33345 -0.726695 18
      vertex 6.375 0 0
      vertex 6.375 0 18
    endloop
  endfacet
  facet normal 0.998369 -0.0570895 0
    outer loop
      vertex 6.375 0 0
      vertex 6.33345 -0.726695 18
      vertex 6.33345 -0.726695 0
    endloop
  endfacet
  facet normal 0.466667 -0.884433 0
    outer loop
      vertex 2.64827 -5.7989 0
      vertex 3.29203 -5.45922 18
      vertex 2.64827 -5.7989 18
    endloop
  endfacet
  facet normal 0.466667 -0.884433 0
    outer loop
      vertex 3.29203 -5.45922 18
      vertex 2.64827 -5.7989 0
      vertex 3.29203 -5.45922 0
    endloop
  endfacet
  facet normal 0.65486 -0.75575 0
    outer loop
      vertex 3.89288 -5.04838 0
      vertex 4.44298 -4.57171 18
      vertex 3.89288 -5.04838 18
    endloop
  endfacet
  facet normal 0.65486 -0.75575 0
    outer loop
      vertex 4.44298 -4.57171 18
      vertex 3.89288 -5.04838 0
      vertex 4.44298 -4.57171 0
    endloop
  endfacet
  facet normal 0.564444 -0.825472 0
    outer loop
      vertex 3.29203 -5.45922 0
      vertex 3.89288 -5.04838 18
      vertex 3.29203 -5.45922 18
    endloop
  endfacet
  facet normal 0.564444 -0.825472 0
    outer loop
      vertex 3.89288 -5.04838 18
      vertex 3.29203 -5.45922 0
      vertex 3.89288 -5.04838 0
    endloop
  endfacet
  facet normal 0.809017 -0.587785 0
    outer loop
      vertex 4.93515 -4.03545 18
      vertex 5.36299 -3.44658 0
      vertex 5.36299 -3.44658 18
    endloop
  endfacet
  facet normal 0.809017 -0.587785 0
    outer loop
      vertex 5.36299 -3.44658 0
      vertex 4.93515 -4.03545 18
      vertex 4.93515 -4.03545 0
    endloop
  endfacet
  facet normal -0.516398 -0.856349 0
    outer loop
      vertex -3.59832 -5.26238 0
      vertex -2.975 -5.63826 18
      vertex -3.59832 -5.26238 18
    endloop
  endfacet
  facet normal -0.516398 -0.856349 -0
    outer loop
      vertex -2.975 -5.63826 18
      vertex -3.59832 -5.26238 0
      vertex -2.975 -5.63826 0
    endloop
  endfacet
  facet normal -0.610647 -0.791903 0
    outer loop
      vertex -4.17474 -4.8179 0
      vertex -3.59832 -5.26238 18
      vertex -4.17474 -4.8179 18
    endloop
  endfacet
  facet normal -0.610647 -0.791903 -0
    outer loop
      vertex -3.59832 -5.26238 18
      vertex -4.17474 -4.8179 0
      vertex -3.59832 -5.26238 0
    endloop
  endfacet
  facet normal -0.415415 -0.909632 0
    outer loop
      vertex -2.975 -5.63826 0
      vertex -2.3129 -5.94063 18
      vertex -2.975 -5.63826 18
    endloop
  endfacet
  facet normal -0.415415 -0.909632 -0
    outer loop
      vertex -2.3129 -5.94063 18
      vertex -2.975 -5.63826 0
      vertex -2.3129 -5.94063 0
    endloop
  endfacet
  facet normal -0.309017 -0.951057 0
    outer loop
      vertex -2.3129 -5.94063 0
      vertex -1.62064 -6.16556 18
      vertex -2.3129 -5.94063 18
    endloop
  endfacet
  facet normal -0.309017 -0.951057 -0
    outer loop
      vertex -1.62064 -6.16556 18
      vertex -2.3129 -5.94063 0
      vertex -1.62064 -6.16556 0
    endloop
  endfacet
  facet normal -0.0855746 -0.996332 0
    outer loop
      vertex -0.907257 -6.31011 0
      vertex -0.182044 -6.3724 18
      vertex -0.907257 -6.31011 18
    endloop
  endfacet
  facet normal -0.0855746 -0.996332 -0
    outer loop
      vertex -0.182044 -6.3724 18
      vertex -0.907257 -6.31011 0
      vertex -0.182044 -6.3724 0
    endloop
  endfacet
  facet normal -0.897398 -0.441221 0
    outer loop
      vertex -5.55101 -3.1348 0
      vertex -5.87216 -2.4816 18
      vertex -5.87216 -2.4816 0
    endloop
  endfacet
  facet normal -0.897398 -0.441221 0
    outer loop
      vertex -5.87216 -2.4816 18
      vertex -5.55101 -3.1348 0
      vertex -5.55101 -3.1348 18
    endloop
  endfacet
  facet normal 0.736741 0.676175 0
    outer loop
      vertex 4.93515 4.03545 18
      vertex 4.44298 4.57171 0
      vertex 4.44298 4.57171 18
    endloop
  endfacet
  facet normal 0.736741 0.676175 0
    outer loop
      vertex 4.44298 4.57171 0
      vertex 4.93515 4.03545 18
      vertex 4.93515 4.03545 0
    endloop
  endfacet
  facet normal 0.362807 0.931864 -0
    outer loop
      vertex 2.64827 5.7989 0
      vertex 1.96998 6.06298 18
      vertex 2.64827 5.7989 18
    endloop
  endfacet
  facet normal 0.362807 0.931864 0
    outer loop
      vertex 1.96998 6.06298 18
      vertex 2.64827 5.7989 0
      vertex 1.96998 6.06298 0
    endloop
  endfacet
  facet normal -0.696938 0.717131 0
    outer loop
      vertex -4.17474 4.8179 0
      vertex -4.69672 4.31061 18
      vertex -4.17474 4.8179 18
    endloop
  endfacet
  facet normal -0.696938 0.717131 0
    outer loop
      vertex -4.69672 4.31061 18
      vertex -4.17474 4.8179 0
      vertex -4.69672 4.31061 0
    endloop
  endfacet
  facet normal -0.309017 0.951057 0
    outer loop
      vertex -1.62064 6.16556 0
      vertex -2.3129 5.94063 18
      vertex -1.62064 6.16556 18
    endloop
  endfacet
  facet normal -0.309017 0.951057 0
    outer loop
      vertex -2.3129 5.94063 18
      vertex -1.62064 6.16556 0
      vertex -2.3129 5.94063 0
    endloop
  endfacet
  facet normal 0.362807 -0.931864 0
    outer loop
      vertex 1.96998 -6.06298 0
      vertex 2.64827 -5.7989 18
      vertex 1.96998 -6.06298 18
    endloop
  endfacet
  facet normal 0.362807 -0.931864 0
    outer loop
      vertex 2.64827 -5.7989 18
      vertex 1.96998 -6.06298 0
      vertex 2.64827 -5.7989 0
    endloop
  endfacet
  facet normal 0.921124 -0.389269 0
    outer loop
      vertex 5.72091 -2.81278 18
      vertex 6.00426 -2.14231 0
      vertex 6.00426 -2.14231 18
    endloop
  endfacet
  facet normal 0.921124 -0.389269 0
    outer loop
      vertex 6.00426 -2.14231 0
      vertex 5.72091 -2.81278 18
      vertex 5.72091 -2.81278 0
    endloop
  endfacet
  facet normal 0.959493 -0.281733 0
    outer loop
      vertex 6.00426 -2.14231 18
      vertex 6.20933 -1.44392 0
      vertex 6.20933 -1.44392 18
    endloop
  endfacet
  facet normal 0.959493 -0.281733 0
    outer loop
      vertex 6.20933 -1.44392 0
      vertex 6.00426 -2.14231 18
      vertex 6.00426 -2.14231 0
    endloop
  endfacet
  facet normal 0.985354 -0.170522 0
    outer loop
      vertex 6.20933 -1.44392 18
      vertex 6.33345 -0.726695 0
      vertex 6.33345 -0.726695 18
    endloop
  endfacet
  facet normal 0.985354 -0.170522 0
    outer loop
      vertex 6.33345 -0.726695 0
      vertex 6.20933 -1.44392 18
      vertex 6.20933 -1.44392 0
    endloop
  endfacet
  facet normal -0.841254 -0.54064 0
    outer loop
      vertex -5.15748 -3.74713 0
      vertex -5.55101 -3.1348 18
      vertex -5.55101 -3.1348 0
    endloop
  endfacet
  facet normal -0.841254 -0.54064 0
    outer loop
      vertex -5.55101 -3.1348 18
      vertex -5.15748 -3.74713 0
      vertex -5.15748 -3.74713 18
    endloop
  endfacet
  facet normal -0.941844 -0.336049 0
    outer loop
      vertex -5.87216 -2.4816 0
      vertex -6.11677 -1.79604 18
      vertex -6.11677 -1.79604 0
    endloop
  endfacet
  facet normal -0.941844 -0.336049 0
    outer loop
      vertex -6.11677 -1.79604 18
      vertex -5.87216 -2.4816 0
      vertex -5.87216 -2.4816 18
    endloop
  endfacet
  facet normal 0.870746 -0.491734 0
    outer loop
      vertex 5.36299 -3.44658 18
      vertex 5.72091 -2.81278 0
      vertex 5.72091 -2.81278 18
    endloop
  endfacet
  facet normal 0.870746 -0.491734 0
    outer loop
      vertex 5.72091 -2.81278 0
      vertex 5.36299 -3.44658 18
      vertex 5.36299 -3.44658 0
    endloop
  endfacet
  facet normal -0.998369 -0.0570894 0
    outer loop
      vertex 3.375 0 0
      vertex 3.353 0.384721 18
      vertex 3.353 0.384721 0
    endloop
  endfacet
  facet normal -0.998369 -0.0570894 0
    outer loop
      vertex 3.353 0.384721 18
      vertex 3.375 0 0
      vertex 3.375 0 18
    endloop
  endfacet
  facet normal 1 -0 0
    outer loop
      vertex -3.3695 -0.192675 18
      vertex -3.3695 0.192675 0
      vertex -3.3695 0.192675 18
    endloop
  endfacet
  facet normal 1 0 0
    outer loop
      vertex -3.3695 0.192675 0
      vertex -3.3695 -0.192675 18
      vertex -3.3695 -0.192675 0
    endloop
  endfacet
  facet normal 0.0855747 -0.996332 0
    outer loop
      vertex -0.480312 3.34065 0
      vertex -0.0963764 3.37362 18
      vertex -0.480312 3.34065 18
    endloop
  endfacet
  facet normal 0.0855747 -0.996332 0
    outer loop
      vertex -0.0963764 3.37362 18
      vertex -0.480312 3.34065 0
      vertex -0.0963764 3.37362 0
    endloop
  endfacet
  facet normal -0.0285546 0.999592 0
    outer loop
      vertex 0.288815 -3.36262 0
      vertex -0.0963764 -3.37362 18
      vertex 0.288815 -3.36262 18
    endloop
  endfacet
  facet normal -0.0285546 0.999592 0
    outer loop
      vertex -0.0963764 -3.37362 18
      vertex 0.288815 -3.36262 0
      vertex -0.0963764 -3.37362 0
    endloop
  endfacet
  facet normal -0.654859 -0.755751 0
    outer loop
      vertex 2.06094 2.67267 0
      vertex 2.35216 2.42032 18
      vertex 2.06094 2.67267 18
    endloop
  endfacet
  facet normal -0.654859 -0.755751 -0
    outer loop
      vertex 2.35216 2.42032 18
      vertex 2.06094 2.67267 0
      vertex 2.35216 2.42032 0
    endloop
  endfacet
  facet normal 0.696937 -0.717132 0
    outer loop
      vertex -2.4865 2.28209 0
      vertex -2.21015 2.55065 18
      vertex -2.4865 2.28209 18
    endloop
  endfacet
  facet normal 0.696937 -0.717132 0
    outer loop
      vertex -2.21015 2.55065 18
      vertex -2.4865 2.28209 0
      vertex -2.21015 2.55065 0
    endloop
  endfacet
  facet normal 0.415415 -0.909632 0
    outer loop
      vertex -1.575 2.98496 0
      vertex -1.22448 3.14504 18
      vertex -1.575 2.98496 18
    endloop
  endfacet
  facet normal 0.415415 -0.909632 0
    outer loop
      vertex -1.22448 3.14504 18
      vertex -1.575 2.98496 0
      vertex -1.22448 3.14504 0
    endloop
  endfacet
  facet normal 0.974011 0.226499 0
    outer loop
      vertex -3.23829 -0.950847 18
      vertex -3.32557 -0.575512 0
      vertex -3.32557 -0.575512 18
    endloop
  endfacet
  facet normal 0.974011 0.226499 0
    outer loop
      vertex -3.32557 -0.575512 0
      vertex -3.23829 -0.950847 18
      vertex -3.23829 -0.950847 0
    endloop
  endfacet
  facet normal -0.870747 -0.491732 0
    outer loop
      vertex 3.02872 1.48912 0
      vertex 2.83923 1.82466 18
      vertex 2.83923 1.82466 0
    endloop
  endfacet
  facet normal -0.870747 -0.491732 0
    outer loop
      vertex 2.83923 1.82466 18
      vertex 3.02872 1.48912 0
      vertex 3.02872 1.48912 18
    endloop
  endfacet
  facet normal -0.25422 -0.967147 0
    outer loop
      vertex 0.670242 3.30778 0
      vertex 1.04293 3.20982 18
      vertex 0.670242 3.30778 18
    endloop
  endfacet
  facet normal -0.25422 -0.967147 -0
    outer loop
      vertex 1.04293 3.20982 18
      vertex 0.670242 3.30778 0
      vertex 1.04293 3.20982 0
    endloop
  endfacet
  facet normal -0.142315 -0.989821 0
    outer loop
      vertex 0.288815 3.36262 0
      vertex 0.670242 3.30778 18
      vertex 0.288815 3.36262 18
    endloop
  endfacet
  facet normal -0.142315 -0.989821 -0
    outer loop
      vertex 0.670242 3.30778 18
      vertex 0.288815 3.36262 0
      vertex 0.670242 3.30778 0
    endloop
  endfacet
  facet normal 0.841253 -0.540641 0
    outer loop
      vertex -2.93877 1.6596 18
      vertex -2.73043 1.98378 0
      vertex -2.73043 1.98378 18
    endloop
  endfacet
  facet normal 0.841253 -0.540641 0
    outer loop
      vertex -2.73043 1.98378 0
      vertex -2.93877 1.6596 18
      vertex -2.93877 1.6596 0
    endloop
  endfacet
  facet normal 0.774142 -0.633012 0
    outer loop
      vertex -2.73043 1.98378 18
      vertex -2.4865 2.28209 0
      vertex -2.4865 2.28209 18
    endloop
  endfacet
  facet normal 0.774142 -0.633012 0
    outer loop
      vertex -2.4865 2.28209 0
      vertex -2.73043 1.98378 18
      vertex -2.73043 1.98378 0
    endloop
  endfacet
  facet normal 0.610647 -0.791903 0
    outer loop
      vertex -2.21015 2.55065 0
      vertex -1.90499 2.78597 18
      vertex -2.21015 2.55065 18
    endloop
  endfacet
  facet normal 0.610647 -0.791903 0
    outer loop
      vertex -1.90499 2.78597 18
      vertex -2.21015 2.55065 0
      vertex -1.90499 2.78597 0
    endloop
  endfacet
  facet normal 0.309017 -0.951057 0
    outer loop
      vertex -1.22448 3.14504 0
      vertex -0.857986 3.26412 18
      vertex -1.22448 3.14504 18
    endloop
  endfacet
  facet normal 0.309017 -0.951057 0
    outer loop
      vertex -0.857986 3.26412 18
      vertex -1.22448 3.14504 0
      vertex -0.857986 3.26412 0
    endloop
  endfacet
  facet normal -0.870747 0.491732 0
    outer loop
      vertex 2.83923 -1.82466 0
      vertex 3.02872 -1.48912 18
      vertex 3.02872 -1.48912 0
    endloop
  endfacet
  facet normal -0.870747 0.491732 0
    outer loop
      vertex 3.02872 -1.48912 18
      vertex 2.83923 -1.82466 0
      vertex 2.83923 -1.82466 18
    endloop
  endfacet
  facet normal -0.362807 0.931864 0
    outer loop
      vertex 1.40203 -3.07001 0
      vertex 1.04293 -3.20982 18
      vertex 1.40203 -3.07001 18
    endloop
  endfacet
  facet normal -0.362807 0.931864 0
    outer loop
      vertex 1.04293 -3.20982 18
      vertex 1.40203 -3.07001 0
      vertex 1.04293 -3.20982 0
    endloop
  endfacet
  facet normal -0.809016 0.587786 0
    outer loop
      vertex 2.61273 -2.13642 0
      vertex 2.83923 -1.82466 18
      vertex 2.83923 -1.82466 0
    endloop
  endfacet
  facet normal -0.809016 0.587786 0
    outer loop
      vertex 2.83923 -1.82466 18
      vertex 2.61273 -2.13642 0
      vertex 2.61273 -2.13642 18
    endloop
  endfacet
  facet normal -0.959493 0.281733 0
    outer loop
      vertex 3.17872 -1.13417 0
      vertex 3.28729 -0.764426 18
      vertex 3.28729 -0.764426 0
    endloop
  endfacet
  facet normal -0.959493 0.281733 0
    outer loop
      vertex 3.28729 -0.764426 18
      vertex 3.17872 -1.13417 0
      vertex 3.17872 -1.13417 18
    endloop
  endfacet
  facet normal 0.415415 0.909632 -0
    outer loop
      vertex -1.22448 -3.14504 0
      vertex -1.575 -2.98496 18
      vertex -1.22448 -3.14504 18
    endloop
  endfacet
  facet normal 0.415415 0.909632 0
    outer loop
      vertex -1.575 -2.98496 18
      vertex -1.22448 -3.14504 0
      vertex -1.575 -2.98496 0
    endloop
  endfacet
  facet normal 0.309017 0.951057 -0
    outer loop
      vertex -0.857986 -3.26412 0
      vertex -1.22448 -3.14504 18
      vertex -0.857986 -3.26412 18
    endloop
  endfacet
  facet normal 0.309017 0.951057 0
    outer loop
      vertex -1.22448 -3.14504 18
      vertex -0.857986 -3.26412 0
      vertex -1.22448 -3.14504 0
    endloop
  endfacet
  facet normal 0.696937 0.717132 -0
    outer loop
      vertex -2.21015 -2.55065 0
      vertex -2.4865 -2.28209 18
      vertex -2.21015 -2.55065 18
    endloop
  endfacet
  facet normal 0.696937 0.717132 0
    outer loop
      vertex -2.4865 -2.28209 18
      vertex -2.21015 -2.55065 0
      vertex -2.4865 -2.28209 0
    endloop
  endfacet
  facet normal 0.774142 0.633012 0
    outer loop
      vertex -2.4865 -2.28209 18
      vertex -2.73043 -1.98378 0
      vertex -2.73043 -1.98378 18
    endloop
  endfacet
  facet normal 0.774142 0.633012 0
    outer loop
      vertex -2.73043 -1.98378 0
      vertex -2.4865 -2.28209 18
      vertex -2.4865 -2.28209 0
    endloop
  endfacet
  facet normal 0.993482 0.113991 0
    outer loop
      vertex -3.32557 -0.575512 18
      vertex -3.3695 -0.192675 0
      vertex -3.3695 -0.192675 18
    endloop
  endfacet
  facet normal 0.993482 0.113991 0
    outer loop
      vertex -3.3695 -0.192675 0
      vertex -3.32557 -0.575512 18
      vertex -3.32557 -0.575512 0
    endloop
  endfacet
  facet normal -0.959493 -0.281733 0
    outer loop
      vertex 3.28729 0.764426 0
      vertex 3.17872 1.13417 18
      vertex 3.17872 1.13417 0
    endloop
  endfacet
  facet normal -0.959493 -0.281733 0
    outer loop
      vertex 3.17872 1.13417 18
      vertex 3.28729 0.764426 0
      vertex 3.28729 0.764426 18
    endloop
  endfacet
  facet normal -0.985354 -0.170523 0
    outer loop
      vertex 3.353 0.384721 0
      vertex 3.28729 0.764426 18
      vertex 3.28729 0.764426 0
    endloop
  endfacet
  facet normal -0.985354 -0.170523 0
    outer loop
      vertex 3.28729 0.764426 18
      vertex 3.353 0.384721 0
      vertex 3.353 0.384721 18
    endloop
  endfacet
  facet normal -0.921123 -0.389271 0
    outer loop
      vertex 3.17872 1.13417 0
      vertex 3.02872 1.48912 18
      vertex 3.02872 1.48912 0
    endloop
  endfacet
  facet normal -0.921123 -0.389271 0
    outer loop
      vertex 3.02872 1.48912 18
      vertex 3.17872 1.13417 0
      vertex 3.17872 1.13417 18
    endloop
  endfacet
  facet normal -0.736742 -0.676173 0
    outer loop
      vertex 2.61273 2.13642 0
      vertex 2.35216 2.42032 18
      vertex 2.35216 2.42032 0
    endloop
  endfacet
  facet normal -0.736742 -0.676173 0
    outer loop
      vertex 2.35216 2.42032 18
      vertex 2.61273 2.13642 0
      vertex 2.61273 2.13642 18
    endloop
  endfacet
  facet normal -0.809016 -0.587786 0
    outer loop
      vertex 2.83923 1.82466 0
      vertex 2.61273 2.13642 18
      vertex 2.61273 2.13642 0
    endloop
  endfacet
  facet normal -0.809016 -0.587786 0
    outer loop
      vertex 2.61273 2.13642 18
      vertex 2.83923 1.82466 0
      vertex 2.83923 1.82466 18
    endloop
  endfacet
  facet normal -0.0285546 -0.999592 0
    outer loop
      vertex -0.0963764 3.37362 0
      vertex 0.288815 3.36262 18
      vertex -0.0963764 3.37362 18
    endloop
  endfacet
  facet normal -0.0285546 -0.999592 -0
    outer loop
      vertex 0.288815 3.36262 18
      vertex -0.0963764 3.37362 0
      vertex 0.288815 3.36262 0
    endloop
  endfacet
  facet normal -0.466667 -0.884433 0
    outer loop
      vertex 1.40203 3.07001 0
      vertex 1.74284 2.89018 18
      vertex 1.40203 3.07001 18
    endloop
  endfacet
  facet normal -0.466667 -0.884433 -0
    outer loop
      vertex 1.74284 2.89018 18
      vertex 1.40203 3.07001 0
      vertex 1.74284 2.89018 0
    endloop
  endfacet
  facet normal -0.564444 -0.825471 0
    outer loop
      vertex 1.74284 2.89018 0
      vertex 2.06094 2.67267 18
      vertex 1.74284 2.89018 18
    endloop
  endfacet
  facet normal -0.564444 -0.825471 -0
    outer loop
      vertex 2.06094 2.67267 18
      vertex 1.74284 2.89018 0
      vertex 2.06094 2.67267 0
    endloop
  endfacet
  facet normal 0.974011 -0.226499 0
    outer loop
      vertex -3.32557 0.575512 18
      vertex -3.23829 0.950847 0
      vertex -3.23829 0.950847 18
    endloop
  endfacet
  facet normal 0.974011 -0.226499 0
    outer loop
      vertex -3.23829 0.950847 0
      vertex -3.32557 0.575512 18
      vertex -3.32557 0.575512 0
    endloop
  endfacet
  facet normal 0.897398 -0.441222 0
    outer loop
      vertex -3.10879 1.31379 18
      vertex -2.93877 1.6596 0
      vertex -2.93877 1.6596 18
    endloop
  endfacet
  facet normal 0.897398 -0.441222 0
    outer loop
      vertex -2.93877 1.6596 0
      vertex -3.10879 1.31379 18
      vertex -3.10879 1.31379 0
    endloop
  endfacet
  facet normal 0.941845 -0.336047 0
    outer loop
      vertex -3.23829 0.950847 18
      vertex -3.10879 1.31379 0
      vertex -3.10879 1.31379 18
    endloop
  endfacet
  facet normal 0.941845 -0.336047 0
    outer loop
      vertex -3.10879 1.31379 0
      vertex -3.23829 0.950847 18
      vertex -3.23829 0.950847 0
    endloop
  endfacet
  facet normal 0.993482 -0.113991 0
    outer loop
      vertex -3.3695 0.192675 18
      vertex -3.32557 0.575512 0
      vertex -3.32557 0.575512 18
    endloop
  endfacet
  facet normal 0.993482 -0.113991 0
    outer loop
      vertex -3.32557 0.575512 0
      vertex -3.3695 0.192675 18
      vertex -3.3695 0.192675 0
    endloop
  endfacet
  facet normal 0.516398 -0.856349 0
    outer loop
      vertex -1.90499 2.78597 0
      vertex -1.575 2.98496 18
      vertex -1.90499 2.78597 18
    endloop
  endfacet
  facet normal 0.516398 -0.856349 0
    outer loop
      vertex -1.575 2.98496 18
      vertex -1.90499 2.78597 0
      vertex -1.575 2.98496 0
    endloop
  endfacet
  facet normal 0.19859 -0.980083 0
    outer loop
      vertex -0.857986 3.26412 0
      vertex -0.480312 3.34065 18
      vertex -0.857986 3.26412 18
    endloop
  endfacet
  facet normal 0.19859 -0.980083 0
    outer loop
      vertex -0.480312 3.34065 18
      vertex -0.857986 3.26412 0
      vertex -0.480312 3.34065 0
    endloop
  endfacet
  facet normal -0.998369 0.0570894 0
    outer loop
      vertex 3.353 -0.384721 0
      vertex 3.375 0 18
      vertex 3.375 0 0
    endloop
  endfacet
  facet normal -0.998369 0.0570894 0
    outer loop
      vertex 3.375 0 18
      vertex 3.353 -0.384721 0
      vertex 3.353 -0.384721 18
    endloop
  endfacet
  facet normal -0.142315 0.989821 0
    outer loop
      vertex 0.670242 -3.30778 0
      vertex 0.288815 -3.36262 18
      vertex 0.670242 -3.30778 18
    endloop
  endfacet
  facet normal -0.142315 0.989821 0
    outer loop
      vertex 0.288815 -3.36262 18
      vertex 0.670242 -3.30778 0
      vertex 0.288815 -3.36262 0
    endloop
  endfacet
  facet normal -0.564444 0.825471 0
    outer loop
      vertex 2.06094 -2.67267 0
      vertex 1.74284 -2.89018 18
      vertex 2.06094 -2.67267 18
    endloop
  endfacet
  facet normal -0.564444 0.825471 0
    outer loop
      vertex 1.74284 -2.89018 18
      vertex 2.06094 -2.67267 0
      vertex 1.74284 -2.89018 0
    endloop
  endfacet
  facet normal -0.736742 0.676173 0
    outer loop
      vertex 2.35216 -2.42032 0
      vertex 2.61273 -2.13642 18
      vertex 2.61273 -2.13642 0
    endloop
  endfacet
  facet normal -0.736742 0.676173 0
    outer loop
      vertex 2.61273 -2.13642 18
      vertex 2.35216 -2.42032 0
      vertex 2.35216 -2.42032 18
    endloop
  endfacet
  facet normal -0.654859 0.755751 0
    outer loop
      vertex 2.35216 -2.42032 0
      vertex 2.06094 -2.67267 18
      vertex 2.35216 -2.42032 18
    endloop
  endfacet
  facet normal -0.654859 0.755751 0
    outer loop
      vertex 2.06094 -2.67267 18
      vertex 2.35216 -2.42032 0
      vertex 2.06094 -2.67267 0
    endloop
  endfacet
  facet normal 0.610647 0.791903 -0
    outer loop
      vertex -1.90499 -2.78597 0
      vertex -2.21015 -2.55065 18
      vertex -1.90499 -2.78597 18
    endloop
  endfacet
  facet normal 0.610647 0.791903 0
    outer loop
      vertex -2.21015 -2.55065 18
      vertex -1.90499 -2.78597 0
      vertex -2.21015 -2.55065 0
    endloop
  endfacet
  facet normal 0.516398 0.856349 -0
    outer loop
      vertex -1.575 -2.98496 0
      vertex -1.90499 -2.78597 18
      vertex -1.575 -2.98496 18
    endloop
  endfacet
  facet normal 0.516398 0.856349 0
    outer loop
      vertex -1.90499 -2.78597 18
      vertex -1.575 -2.98496 0
      vertex -1.90499 -2.78597 0
    endloop
  endfacet
  facet normal 0.0855747 0.996332 -0
    outer loop
      vertex -0.0963764 -3.37362 0
      vertex -0.480312 -3.34065 18
      vertex -0.0963764 -3.37362 18
    endloop
  endfacet
  facet normal 0.0855747 0.996332 0
    outer loop
      vertex -0.480312 -3.34065 18
      vertex -0.0963764 -3.37362 0
      vertex -0.480312 -3.34065 0
    endloop
  endfacet
  facet normal 0.897398 0.441222 0
    outer loop
      vertex -2.93877 -1.6596 18
      vertex -3.10879 -1.31379 0
      vertex -3.10879 -1.31379 18
    endloop
  endfacet
  facet normal 0.897398 0.441222 0
    outer loop
      vertex -3.10879 -1.31379 0
      vertex -2.93877 -1.6596 18
      vertex -2.93877 -1.6596 0
    endloop
  endfacet
  facet normal -0.362807 -0.931864 0
    outer loop
      vertex 1.04293 3.20982 0
      vertex 1.40203 3.07001 18
      vertex 1.04293 3.20982 18
    endloop
  endfacet
  facet normal -0.362807 -0.931864 -0
    outer loop
      vertex 1.40203 3.07001 18
      vertex 1.04293 3.20982 0
      vertex 1.40203 3.07001 0
    endloop
  endfacet
  facet normal -0.25422 0.967147 0
    outer loop
      vertex 1.04293 -3.20982 0
      vertex 0.670242 -3.30778 18
      vertex 1.04293 -3.20982 18
    endloop
  endfacet
  facet normal -0.25422 0.967147 0
    outer loop
      vertex 0.670242 -3.30778 18
      vertex 1.04293 -3.20982 0
      vertex 0.670242 -3.30778 0
    endloop
  endfacet
  facet normal -0.466667 0.884433 0
    outer loop
      vertex 1.74284 -2.89018 0
      vertex 1.40203 -3.07001 18
      vertex 1.74284 -2.89018 18
    endloop
  endfacet
  facet normal -0.466667 0.884433 0
    outer loop
      vertex 1.40203 -3.07001 18
      vertex 1.74284 -2.89018 0
      vertex 1.40203 -3.07001 0
    endloop
  endfacet
  facet normal -0.921123 0.389271 0
    outer loop
      vertex 3.02872 -1.48912 0
      vertex 3.17872 -1.13417 18
      vertex 3.17872 -1.13417 0
    endloop
  endfacet
  facet normal -0.921123 0.389271 0
    outer loop
      vertex 3.17872 -1.13417 18
      vertex 3.02872 -1.48912 0
      vertex 3.02872 -1.48912 18
    endloop
  endfacet
  facet normal -0.985354 0.170523 0
    outer loop
      vertex 3.28729 -0.764426 0
      vertex 3.353 -0.384721 18
      vertex 3.353 -0.384721 0
    endloop
  endfacet
  facet normal -0.985354 0.170523 0
    outer loop
      vertex 3.353 -0.384721 18
      vertex 3.28729 -0.764426 0
      vertex 3.28729 -0.764426 18
    endloop
  endfacet
  facet normal 0.19859 0.980083 -0
    outer loop
      vertex -0.480312 -3.34065 0
      vertex -0.857986 -3.26412 18
      vertex -0.480312 -3.34065 18
    endloop
  endfacet
  facet normal 0.19859 0.980083 0
    outer loop
      vertex -0.857986 -3.26412 18
      vertex -0.480312 -3.34065 0
      vertex -0.857986 -3.26412 0
    endloop
  endfacet
  facet normal 0.841253 0.540641 0
    outer loop
      vertex -2.73043 -1.98378 18
      vertex -2.93877 -1.6596 0
      vertex -2.93877 -1.6596 18
    endloop
  endfacet
  facet normal 0.841253 0.540641 0
    outer loop
      vertex -2.93877 -1.6596 0
      vertex -2.73043 -1.98378 18
      vertex -2.73043 -1.98378 0
    endloop
  endfacet
  facet normal 0.941845 0.336047 0
    outer loop
      vertex -3.10879 -1.31379 18
      vertex -3.23829 -0.950847 0
      vertex -3.23829 -0.950847 18
    endloop
  endfacet
  facet normal 0.941845 0.336047 0
    outer loop
      vertex -3.23829 -0.950847 0
      vertex -3.10879 -1.31379 18
      vertex -3.10879 -1.31379 0
    endloop
  endfacet
endsolid OpenSCAD_Model
